<svg xmlns="http://www.w3.org/2000/svg" width="60.103" height="52.892" viewBox="0 0 60.103 52.892">
  <g id="_6457542_customer_evaluation_feedback_rate_review_icon" data-name="6457542_customer_evaluation_feedback_rate_review_icon" transform="translate(-5.956 0.113)">
    <g id="Group_11133" data-name="Group 11133">
      <g id="yTliY0" transform="translate(-608.943 -275.832)">
        <g id="Group_11071" data-name="Group 11071" transform="translate(614.9 275.719)">
          <path id="Path_17898" data-name="Path 17898" d="M641.135,507.79c-9.752-.167-17.74-2.747-24.611-8.46-.58-.482-1.4-.935-1.585-1.556s.312-1.417.505-2.138a28.093,28.093,0,0,1,4.246-9.246,7.023,7.023,0,0,1,8.617-2.3,27.668,27.668,0,0,0,20.857,1.252c1.388-.442,2.686-1.165,4.075-1.6a6.842,6.842,0,0,1,7.453,2.493,26.457,26.457,0,0,1,4.1,8.491c.239.836.487,1.671.779,2.489a.773.773,0,0,1-.266.951,35.4,35.4,0,0,1-18.638,9.035C644.547,507.554,642.39,507.661,641.135,507.79Zm-.909-3.509a34.349,34.349,0,0,0,8.433-1.022,32.122,32.122,0,0,0,12.593-6.174c.273-.22.493-.4.37-.844a24.525,24.525,0,0,0-3.385-7.466,3.6,3.6,0,0,0-5-1.35,30.924,30.924,0,0,1-18.1,2.42,30.53,30.53,0,0,1-8.229-2.564,3.471,3.471,0,0,0-4.437,1.183,23.181,23.181,0,0,0-3.408,7.154c-.316,1.1-.306,1.113.629,1.828A33.518,33.518,0,0,0,640.226,504.281Z" transform="translate(-614.9 -454.898)" fill="#DC291E"/>
          <path id="Path_17899" data-name="Path 17899" d="M724.462,289.952A14.2,14.2,0,1,1,710.5,275.72,14.172,14.172,0,0,1,724.462,289.952Zm-14.227,10.665a10.719,10.719,0,1,0-10.7-10.792A10.7,10.7,0,0,0,710.234,300.616Z" transform="translate(-684.916 -275.719)" fill="#DC291E"/>
        </g>
      </g>
      <g id="Group_11132" data-name="Group 11132" transform="translate(-138.044 -35.141)">
        <rect id="Rectangle_2247" data-name="Rectangle 2247" width="4" height="10" rx="2" transform="matrix(0.719, -0.695, 0.695, 0.719, 186.367, 55.057)" fill="#DC291E"/>
        <rect id="Rectangle_2248" data-name="Rectangle 2248" width="4" height="15" rx="2" transform="matrix(0.695, 0.719, -0.719, 0.695, 201.325, 48.954)" fill="#DC291E"/>
      </g>
    </g>
  </g>
</svg>
