<svg xmlns="http://www.w3.org/2000/svg" width="56.437" height="55.855" viewBox="0 0 56.437 55.855">
  <g id="AtM2bn.tif" transform="translate(-2486.888 -1567.495)">
    <g id="Group_11134" data-name="Group 11134" transform="translate(2487.139 1567.745)">
      <path id="Path_17900" data-name="Path 17900" d="M2553.084,1771.658c0,.394.006.7,0,1.014-.008.361-.175.606-.555.613s-.558-.223-.56-.594c0-.324,0-.649,0-1h-26.384v3.815h26.335c.107-.445-.1-1.113.641-1.069.626.037.511.6.537,1.105h.706c1.006,0,2.012-.007,3.018,0,1.173.01,1.7.542,1.714,1.723.01,1.13,0,2.261,0,3.45h6.336c.4,0,.805-.008.844.539.029.408-.241.594-.852.594h-36.5q-4.912,0-9.824,0a1.074,1.074,0,0,1-.583-.074.793.793,0,0,1-.307-.559.651.651,0,0,1,.376-.446,2.843,2.843,0,0,1,.781-.08c.014-.132-.014-.286.05-.369.143-.184.322-.447.5-.463a.682.682,0,0,1,.552.372c.108.426.351.492.72.492q18.029-.007,36.058,0c.5,0,.687-.18.672-.678-.026-.877-.007-1.756-.009-2.634,0-.712-.017-.727-.75-.727h-35.893c-.726,0-.742.018-.75.73,0,.146.045.326-.022.431-.123.191-.322.475-.478.468a.768.768,0,0,1-.584-.413,1.709,1.709,0,0,1,1.805-2.357c1.185,0,2.37,0,3.589,0v-3.883c-.549,0-1.074.005-1.6,0-.578-.007-.769-.2-.731-.762a16.417,16.417,0,0,1,7.079-12.785,16.2,16.2,0,0,1,7.255-2.858v-2.988c-.644,0-1.293,0-1.942,0-.828,0-1.008-.214-.88-1.028a5.021,5.021,0,0,1,9.945.315c.042.505-.174.764-.68.772-.727.011-1.454,0-2.21,0v2.949c.567.115,1.153.217,1.731.353a16.607,16.607,0,0,1,12.624,14.615c.121,1.4.121,1.4-1.287,1.414C2553.437,1771.659,2553.294,1771.658,2553.084,1771.658Zm.617-1.143a15.3,15.3,0,0,0-24.091-11.387,14.614,14.614,0,0,0-6.437,11.387Zm-11.612-19.3a3.648,3.648,0,0,0-3.4-2.974,3.742,3.742,0,0,0-3.989,2.974Zm-2.733,1.15h-1.864v2.769h1.864Z" transform="translate(-2513.909 -1726.944)" fill="#dc291e" stroke="#dc291e" stroke-width="0.5"/>
      <path id="Path_17900_-_Outline" data-name="Path 17900 - Outline" d="M2518.263,1782.234a30.162,30.162,0,0,1-3.624-.165,1.232,1.232,0,0,1-.486-.924,1.062,1.062,0,0,1,.656-.849c.181-.072,3.366-.09,3.539-.1a.616.616,0,0,1,.106-.211l.045-.059a1.2,1.2,0,0,1,.771-.574l.059,0a1.1,1.1,0,0,1,.962.707c.038.151.04.157.289.157,6.1,0,11.52,0,16.57,0,7.007,0,13.383,0,19.49.006a.656.656,0,0,0,.212-.024.626.626,0,0,0,.016-.2c-.018-.6-.014-1.211-.011-1.8,0-.278,0-.565,0-.847,0-.084,0-.2,0-.28-.09,0-.211,0-.3,0h-35.893c-.086,0-.209,0-.3,0-.005.087-.007.205-.008.287,0,.023,0,.059.006.1a.876.876,0,0,1-.1.572c-.225.349-.483.671-.844.671h-.026a1.18,1.18,0,0,1-.991-.736,2.334,2.334,0,0,1,.281-2.077,2.368,2.368,0,0,1,1.95-.843c.819,0,1.639,0,2.47,0h.677v-2.995c-.186,0-.368,0-.55,0-.235,0-.429,0-.611,0a1.242,1.242,0,0,1-.923-.322,1.192,1.192,0,0,1-.244-.913,16.859,16.859,0,0,1,7.262-13.115,16.635,16.635,0,0,1,7.071-2.877v-2.165h-1.5a1.134,1.134,0,0,1-1.317-1.541,5.323,5.323,0,0,1,1.875-3.274,5.672,5.672,0,0,1,3.61-1.285c.074,0,.149,0,.223,0a5.446,5.446,0,0,1,5.116,4.9,1.164,1.164,0,0,1-.254.915,1.133,1.133,0,0,1-.861.339c-.259,0-.538.006-.878.006l-.9,0v2.141l.183.035c.394.076.8.155,1.207.251a16.632,16.632,0,0,1,4.91,2.035,17.209,17.209,0,0,1,6.756,7.823,16.607,16.607,0,0,1,1.3,5.151c.069.8.107,1.245-.184,1.565s-.735.324-1.54.33h-.054c0,.207,0,2.391,0,2.581-.013.624-.4-.965-.99-.953h-.026c-.6,0-.982,1.594-.986.965,0-.185,0-2.371,0-2.562h-25.5V1775h25.494a1.5,1.5,0,0,1,.135-.61.867.867,0,0,1,.836-.461l.094,0a.9.9,0,0,1,.845.552,1.525,1.525,0,0,1,.1.553h.27c.627,0,1.255,0,1.883,0,.437,0,.8,0,1.14,0a1.933,1.933,0,0,1,2.153,2.162c.007.786.005,1.558,0,2.375q0,.315,0,.635h5.933a1.7,1.7,0,0,1,.718.112,1.037,1.037,0,0,1,.3,1.56,1.424,1.424,0,0,1-1.062.347h-39.466c-2.034,0-4.44,0-6.855,0l-.1,0Zm-.114-.893a.769.769,0,0,0,.114.006l.1,0,.117,0c2.418,0,4.823,0,6.857,0h39.466a.852.852,0,0,0,.408-.062.237.237,0,0,0,0-.058.332.332,0,0,0-.018-.1,1.293,1.293,0,0,0-.343-.028h-6.82v-.443q0-.547,0-1.08c0-.815,0-1.584,0-2.366-.008-.939-.342-1.275-1.274-1.283-.338,0-.7,0-1.132,0l-1.883,0h-1.127l-.021-.422c0-.09-.005-.178-.006-.263a1.572,1.572,0,0,0-.033-.409.315.315,0,0,0-.082-.013.5.5,0,0,0-.1,0,1.705,1.705,0,0,0-.033.292,2.469,2.469,0,0,1-.052.435l-.081.34h-27.129v-4.7h27.271v.752c0,.237,0,2.464,0,2.691a.322.322,0,0,0,.024.144.219.219,0,0,0,.075.01h.009c.085,0,.116,0,.12-.179,0-.2,0-2.407,0-2.643,0-.114,0-.234,0-.363v-.443h.935a5.015,5.015,0,0,0,.885-.047,5.067,5.067,0,0,0-.037-.886,15.726,15.726,0,0,0-1.229-4.876,16.319,16.319,0,0,0-6.407-7.419,15.749,15.749,0,0,0-4.648-1.927c-.386-.091-.786-.168-1.171-.243-.184-.035-.366-.071-.546-.107l-.355-.072v-3.755h.444c.455,0,.9,0,1.34,0,.335,0,.609,0,.864-.006a.361.361,0,0,0,.218-.047.4.4,0,0,0,.027-.245,4.56,4.56,0,0,0-4.266-4.089c-.064,0-.126,0-.19,0a4.581,4.581,0,0,0-4.61,3.809.341.341,0,0,0,.444.516h2.384v3.814l-.379.056a15.652,15.652,0,0,0-7.06,2.779,15.976,15.976,0,0,0-6.9,12.455.688.688,0,0,0,.013.251.749.749,0,0,0,.281.037c.178,0,.368,0,.6,0l.993,0h.443v4.769H2522l-1.373,0a1.515,1.515,0,0,0-1.245.491,1.446,1.446,0,0,0-.142,1.275.455.455,0,0,0,.106.081,2.126,2.126,0,0,0,.129-.176c0-.022,0-.05-.005-.071,0-.053-.009-.113-.009-.177,0-.417.008-.719.239-.945s.534-.224.954-.224h35.894c.424,0,.73,0,.958.222s.235.529.235.948c0,.285,0,.574,0,.853,0,.581-.007,1.182.011,1.769a1.106,1.106,0,0,1-.264.844,1.143,1.143,0,0,1-.849.291c-6.109,0-12.484-.006-19.491-.006-5.049,0-10.469,0-16.568,0a1.046,1.046,0,0,1-1.137-.78.443.443,0,0,0-.077-.057c-.053.057-.12.145-.161.2l0,0c0,.012,0,.024,0,.034a1.706,1.706,0,0,1-.008.174l-.04.365-.366.029c-.1.008-.192.01-.281.012a1.267,1.267,0,0,0-.372.038.335.335,0,0,0-.084.075A.468.468,0,0,0,2518.149,1781.341Zm35.95-10.44h-31.465l.042-.481a15.054,15.054,0,0,1,6.628-11.715,15.824,15.824,0,0,1,8.988-2.979,16.455,16.455,0,0,1,7.888,2.157,15.209,15.209,0,0,1,5.984,5.924,14.615,14.615,0,0,1,1.925,6.64Zm-30.493-.887h29.574a14.432,14.432,0,0,0-7.425-11.353,15.585,15.585,0,0,0-7.464-2.049,14.955,14.955,0,0,0-8.488,2.825,14,14,0,0,0-4.407,4.75A15.385,15.385,0,0,0,2523.606,1770.014Zm16.136-14.49h-2.751v-3.656h2.751Zm-1.864-.887h.977v-1.882h-.977Zm4.634-3.032h-8.4l.092-.521a4.177,4.177,0,0,1,4.2-3.346c.081,0,.164,0,.246.006a4.32,4.32,0,0,1,2.555,1.068,3.545,3.545,0,0,1,1.267,2.314Zm-7.293-.887h6.272a3.365,3.365,0,0,0-2.884-2.088c-.066,0-.134-.005-.2-.005A3.351,3.351,0,0,0,2535.219,1750.718Z" transform="translate(-2513.853 -1726.887)" fill="#dc291e" stroke="#dc291e" stroke-width="0.5"/>
      <path id="Path_17901" data-name="Path 17901" d="M2657.956,1571.279a1.733,1.733,0,0,1,1.31-2.056c.658-.271,1.315-.547,1.978-.808a1.536,1.536,0,0,1,2.218.924q2.371,5.809,4.733,11.622a1.605,1.605,0,0,1-1.043,2.462c-.7.279-1.391.557-2.084.84a1.662,1.662,0,0,1-1.883-.3.6.6,0,0,0-.507-.085c-.7.256-1.394.547-2.085.836a4.989,4.989,0,0,1-3.484.153c-1.921-.586-3.847-1.159-5.765-1.755a2.832,2.832,0,0,0-2.026.085c-1.685.7-3.384,1.375-5.079,2.055a2.724,2.724,0,0,1-4-2.052,1.536,1.536,0,0,0-.08-.187l-2.049,1.58q-2.236,1.728-4.473,3.455a2.327,2.327,0,0,1-3.45-.319,2.357,2.357,0,0,1,.285-3.386q6.84-6.306,13.7-12.592a3.711,3.711,0,0,1,3.183-1c2.567.383,5.139.735,7.694,1.185A5.764,5.764,0,0,0,2657.956,1571.279Zm.437,1.11a9.866,9.866,0,0,1-1.379.522,5.5,5.5,0,0,1-1.872.223c-2.623-.369-5.234-.822-7.848-1.254a2.73,2.73,0,0,0-2.418.74q-5.816,5.349-11.637,10.693c-.7.644-1.414,1.274-2.087,1.945a1.368,1.368,0,0,0-.085,1.889,1.311,1.311,0,0,0,1.833.09c2.728-2.122,5.448-4.254,8.18-6.371a4.7,4.7,0,0,1,1.074-.639c2.061-.846,4.132-1.666,6.2-2.494.119-.047.26-.15.356-.119.237.078.546.167.647.35.077.138-.087.453-.214.644-.077.115-.283.149-.435.21-2.018.805-4.038,1.605-6.054,2.416a2.381,2.381,0,0,0-.663.371,1.613,1.613,0,0,0-.338,2.088,1.555,1.555,0,0,0,2,.639c1.834-.723,3.667-1.451,5.487-2.211a3.476,3.476,0,0,1,2.507-.106c1.913.61,3.83,1.212,5.762,1.758a3.647,3.647,0,0,0,1.775.141c1.14-.283,2.234-.75,3.379-1.152Zm3.7-3.041c-.22.07-.327.1-.428.137-.543.215-1.085.435-1.629.649-1.157.457-1.166.478-.711,1.617q2.2,5.522,4.408,11.045c.255.639.4.7,1.036.443.662-.262,1.315-.55,1.986-.788.49-.173.606-.425.4-.914-.651-1.569-1.271-3.151-1.9-4.728-.917-2.289-1.831-4.579-2.76-6.864A3.335,3.335,0,0,0,2662.095,1569.348Z" transform="translate(-2613.543 -1567.801)" fill="#dc291e" stroke="#dc291e" stroke-width="0.5"/>
      <path id="Path_17901_-_Outline" data-name="Path 17901 - Outline" d="M2661.993,1567.745a1.95,1.95,0,0,1,1.822,1.371c1.842,4.513,3.346,8.207,4.734,11.623a2.033,2.033,0,0,1-1.289,3.041l-.348.139c-.569.228-1.157.464-1.733.7a2.468,2.468,0,0,1-.929.2,2.086,2.086,0,0,1-1.4-.56.25.25,0,0,0-.075-.012h-.013c-.661.241-1.326.519-1.969.788l-.085.036a5.409,5.409,0,0,1-2.1.429,5.8,5.8,0,0,1-1.689-.261q-1.042-.318-2.086-.632c-1.208-.365-2.456-.742-3.682-1.123a2.614,2.614,0,0,0-.785-.127,2.4,2.4,0,0,0-.938.2c-1.328.555-2.684,1.1-4,1.622l-1.088.436a4.209,4.209,0,0,1-1.561.327,3.006,3.006,0,0,1-2.9-2.246l-.208.161-1.349,1.041-1.456,1.126c-.988.765-2.01,1.555-3.018,2.329a3.1,3.1,0,0,1-1.895.71,2.835,2.835,0,0,1-2.162-1.091,2.775,2.775,0,0,1-.687-2.032,3.032,3.032,0,0,1,1.008-1.969c4.829-4.452,9.635-8.864,13.7-12.593a4.153,4.153,0,0,1,2.872-1.162,4.6,4.6,0,0,1,.677.051q.925.138,1.852.273c1.921.281,3.907.572,5.854.914a2.251,2.251,0,0,0,.389.034,4.348,4.348,0,0,0,1.58-.41c.137-.054.276-.109.419-.162a2.087,2.087,0,0,1,1.586-2.151l.487-.2c.489-.2.994-.411,1.5-.609A2.66,2.66,0,0,1,2661.993,1567.745Zm2.257,16.183a1.59,1.59,0,0,0,.594-.131c.579-.236,1.169-.473,1.739-.7l.348-.139a1.185,1.185,0,0,0,.8-1.884c-1.387-3.416-2.892-7.109-4.733-11.621-.334-.819-.836-.819-1-.819a1.782,1.782,0,0,0-.643.14c-.5.2-1,.4-1.483.6l-.489.2c-.9.371-1.066.63-1.036,1.632l.01.333-.317.1c-.226.073-.454.163-.674.25a5.091,5.091,0,0,1-1.905.472,3.132,3.132,0,0,1-.542-.048c-1.934-.34-3.914-.63-5.829-.91q-.927-.135-1.854-.273a3.717,3.717,0,0,0-.546-.042,3.293,3.293,0,0,0-2.272.929c-4.063,3.728-8.869,8.14-13.7,12.591a1.911,1.911,0,0,0-.249,2.772,1.978,1.978,0,0,0,1.489.782,2.238,2.238,0,0,0,1.354-.526c1.007-.773,2.028-1.563,3.015-2.328l1.457-1.127,1.35-1.041,1.15-.887.227.521c.012.027.022.049.032.068a.967.967,0,0,1,.072.189c.326,1.3,1.1,2.01,2.173,2.01a3.33,3.33,0,0,0,1.23-.263l1.089-.436c1.309-.523,2.663-1.064,3.983-1.617a3.265,3.265,0,0,1,1.281-.266,3.491,3.491,0,0,1,1.048.167c1.222.38,2.469.757,3.675,1.121q1.044.316,2.087.633a4.923,4.923,0,0,0,1.431.223,4.526,4.526,0,0,0,1.753-.361l.085-.036c.656-.275,1.334-.558,2.019-.807a.892.892,0,0,1,.306-.05.992.992,0,0,1,.648.222A1.216,1.216,0,0,0,2664.25,1583.928Zm-2.032-15.158.187.272c.031.045.071.1.113.151a2.229,2.229,0,0,1,.335.532c.741,1.823,1.485,3.681,2.2,5.477l.556,1.389q.268.668.533,1.336c.443,1.113.9,2.263,1.368,3.386a1.007,1.007,0,0,1-.665,1.5c-.429.152-.863.331-1.283.5-.225.092-.457.188-.688.279a1.9,1.9,0,0,1-.682.171c-.585,0-.8-.54-.93-.862q-1.291-3.233-2.581-6.467-.913-2.289-1.827-4.578c-.254-.639-.409-1.024-.245-1.4s.556-.535,1.205-.791q.414-.164.827-.33l.8-.32c.081-.032.156-.055.261-.087l.2-.061Zm4.538,13.106a.6.6,0,0,0-.061-.224c-.469-1.129-.928-2.283-1.373-3.4q-.266-.667-.533-1.334l-.556-1.389c-.719-1.8-1.462-3.651-2.2-5.473a1.2,1.2,0,0,0-.159-.25c-.039.012-.07.023-.1.034-.267.105-.533.212-.8.318s-.553.222-.831.331a4.335,4.335,0,0,0-.71.32,4.232,4.232,0,0,0,.248.72q.914,2.289,1.827,4.578,1.291,3.233,2.581,6.466a1.792,1.792,0,0,0,.142.3,1.881,1.881,0,0,0,.32-.105c.226-.089.455-.183.676-.275.43-.177.875-.36,1.324-.519A.6.6,0,0,0,2666.755,1581.876Zm-20.033-10.541a3.617,3.617,0,0,1,.587.05l1.5.25c2.076.347,4.223.705,6.339,1a1.967,1.967,0,0,0,.276.018,5.945,5.945,0,0,0,1.239-.19l.2-.045a4.847,4.847,0,0,0,.846-.308c.149-.064.3-.13.466-.194l.409-.159,4.507,11.21-.437.154c-.331.116-.665.241-.987.361a22.787,22.787,0,0,1-2.432.8,2.662,2.662,0,0,1-.639.073,5.047,5.047,0,0,1-1.363-.218c-1.956-.553-3.932-1.174-5.777-1.762a3.214,3.214,0,0,0-.989-.163,3.1,3.1,0,0,0-1.211.256c-1.854.774-3.736,1.521-5.5,2.214a2.293,2.293,0,0,1-.84.166,1.953,1.953,0,0,1-1.705-.991,2.058,2.058,0,0,1,.431-2.651,2.816,2.816,0,0,1,.787-.446c1.38-.555,2.784-1.114,4.142-1.654l1.913-.762c.054-.022.109-.039.157-.055.031-.01.074-.024.1-.035a1.538,1.538,0,0,0,.091-.167c-.064-.028-.147-.057-.216-.08l-.019.01c-.042.021-.088.045-.14.065l-1.482.592c-1.547.618-3.148,1.257-4.714,1.9a4.242,4.242,0,0,0-.972.579c-1.614,1.25-3.25,2.528-4.834,3.763-1.1.855-2.229,1.74-3.346,2.607a1.909,1.909,0,0,1-1.175.422,1.674,1.674,0,0,1-1.259-.566,1.817,1.817,0,0,1,.1-2.5c.513-.512,1.056-1.006,1.58-1.483q.26-.237.52-.475l4.344-3.991c2.391-2.2,4.863-4.467,7.293-6.7A3.187,3.187,0,0,1,2646.722,1571.335Zm8.7,2.208a2.881,2.881,0,0,1-.4-.027c-2.127-.3-4.28-.659-6.361-1.007l-1.5-.249a2.293,2.293,0,0,0-2.045.629c-2.43,2.235-4.9,4.506-7.293,6.7l-4.344,3.991q-.261.24-.523.478c-.517.47-1.051.957-1.55,1.455a.931.931,0,0,0-.069,1.279.788.788,0,0,0,.6.272,1.035,1.035,0,0,0,.631-.235c1.115-.868,2.249-1.752,3.344-2.607,1.583-1.236,3.221-2.514,4.836-3.765a5.118,5.118,0,0,1,1.178-.7c1.571-.645,3.173-1.285,4.723-1.9l1.481-.592c.016-.006.043-.02.07-.034a.913.913,0,0,1,.412-.123.568.568,0,0,1,.177.028l.048.016a1.387,1.387,0,0,1,.849.542c.15.272.072.643-.233,1.1a.94.94,0,0,1-.541.343c-.038.012-.074.024-.1.034l-1.914.762c-1.357.54-2.761,1.1-4.139,1.653a2,2,0,0,0-.54.3,1.17,1.17,0,0,0-.246,1.525,1.072,1.072,0,0,0,.943.557,1.406,1.406,0,0,0,.515-.1c1.754-.691,3.632-1.437,5.479-2.208a3.97,3.97,0,0,1,1.553-.324,4.086,4.086,0,0,1,1.259.2c2.123.677,3.913,1.235,5.748,1.753a4.193,4.193,0,0,0,1.122.185,1.773,1.773,0,0,0,.425-.047,21.811,21.811,0,0,0,2.336-.774l.566-.21-3.832-9.529-.031.014a5.484,5.484,0,0,1-1.008.36l-.2.044A6.584,6.584,0,0,1,2655.423,1573.543Z" transform="translate(-2613.487 -1567.745)" fill="#dc291e" stroke="#dc291e" stroke-width="0.5"/>
      <path id="Path_17902" data-name="Path 17902" d="M2966.627,2053.033a2.528,2.528,0,0,1,.808.059.749.749,0,0,1,.43.517.683.683,0,0,1-.417.523,6.72,6.72,0,0,1-1.683,0c-.172-.023-.4-.369-.414-.576-.008-.157.267-.407.464-.474a2.639,2.639,0,0,1,.812-.02Z" transform="translate(-2912.371 -1999.273)" fill="#dc291e" stroke="#dc291e" stroke-width="0.5"/>
      <path id="Path_17902_-_Outline" data-name="Path 17902 - Outline" d="M2966.134,2052.509l.458.022c.072,0,.146,0,.22,0l.155,0a1.493,1.493,0,0,1,.581.095,1.169,1.169,0,0,1,.7.926,1.094,1.094,0,0,1-.806.963,7.193,7.193,0,0,1-1.8,0,1.147,1.147,0,0,1-.8-.994c-.021-.415.439-.8.764-.916a1.376,1.376,0,0,1,.452-.066h.066Zm1.208,1.05a.452.452,0,0,0-.133-.115.636.636,0,0,0-.2-.028v.03h-.437c-.1,0-.191-.007-.281-.013s-.154-.01-.221-.01a.548.548,0,0,0-.167.02.487.487,0,0,0-.135.094.577.577,0,0,0,.071.1,6.333,6.333,0,0,0,1.441,0A.516.516,0,0,0,2967.342,2053.559Z" transform="translate(-2912.315 -1999.214)" fill="#dc291e" stroke="#dc291e" stroke-width="0.5"/>
      <path id="Path_17903" data-name="Path 17903" d="M2488.7,2054.275c-.8,0-1.1-.166-1.059-.591.065-.643.577-.534,1-.539.775-.01,1.045.144,1,.581C2489.585,2054.371,2489.078,2054.259,2488.7,2054.275Z" transform="translate(-2487.196 -1999.372)" fill="#dc291e" stroke="#dc291e" stroke-width="0.5"/>
      <path id="Path_17903_-_Outline" data-name="Path 17903 - Outline" d="M2488.655,2054.662h-.01a1.719,1.719,0,0,1-1.292-.375.878.878,0,0,1-.207-.7.985.985,0,0,1,1.131-.941l.149,0,.126,0h.1a1.544,1.544,0,0,1,1.169.348.9.9,0,0,1,.209.719,1.009,1.009,0,0,1-1.156.949h-.22Zm-.629-.962a1.544,1.544,0,0,0,.611.075c.039,0,.079,0,.12,0h.118a.707.707,0,0,0,.245-.023.348.348,0,0,0,.028-.123c0-.018,0-.032,0-.043a1.473,1.473,0,0,0-.5-.053h-.1l-.146,0-.129,0a.59.59,0,0,0-.22.023.334.334,0,0,0-.029.121A.27.27,0,0,0,2488.026,2053.7Z" transform="translate(-2487.139 -1999.315)" fill="#dc291e" stroke="#dc291e" stroke-width="0.5"/>
      <path id="Path_17904" data-name="Path 17904" d="M2589.84,1859.864c.094-.307.147-.52.223-.724a13.064,13.064,0,0,1,11.138-8.908c.416-.059.708.081.759.5.061.5-.338.6-.713.639a11.5,11.5,0,0,0-4.221,1.275,12.015,12.015,0,0,0-5.935,6.95,1.2,1.2,0,0,1-.247.535.794.794,0,0,1-.611.19C2590.061,1860.269,2589.951,1860,2589.84,1859.864Z" transform="translate(-2578.157 -1818.765)" fill="#dc291e" stroke="#dc291e" stroke-width="0.5"/>
      <path id="Path_17904_-_Outline" data-name="Path 17904 - Outline" d="M2590.279,1860.721a.788.788,0,0,1-.227-.032,1.024,1.024,0,0,1-.543-.5c-.026-.041-.053-.083-.069-.1l-.078-.407c.032-.1.058-.195.083-.279.05-.172.093-.321.149-.471a14.268,14.268,0,0,1,4.385-6.3,14.45,14.45,0,0,1,7.106-2.893,1.69,1.69,0,0,1,.234-.017.974.974,0,0,1,1.027.9.947.947,0,0,1-.182.729,1.3,1.3,0,0,1-.925.4,11.105,11.105,0,0,0-4.06,1.226,11.573,11.573,0,0,0-5.723,6.7c-.012.034-.023.07-.034.107a1.212,1.212,0,0,1-.351.627A1.355,1.355,0,0,1,2590.279,1860.721Zm-.009-.987c.018.028.041.063.06.091a.585.585,0,0,0,.17-.085,1.3,1.3,0,0,0,.076-.209c.014-.046.028-.092.043-.135a12.491,12.491,0,0,1,6.147-7.2,11.982,11.982,0,0,1,4.382-1.324.784.784,0,0,0,.32-.073.274.274,0,0,0,0-.072c-.013-.1-.015-.123-.147-.123a.79.79,0,0,0-.109.008,13.58,13.58,0,0,0-6.678,2.708,13.405,13.405,0,0,0-4.107,5.917c-.044.119-.082.246-.128.408Z" transform="translate(-2578.103 -1818.709)" fill="#dc291e" stroke="#dc291e" stroke-width="0.5"/>
    </g>
  </g>
</svg>
